<svg id="skill-icon02" xmlns="http://www.w3.org/2000/svg" width="30" height="30" viewBox="0 0 30 30">
  <path id="패스_19" data-name="패스 19" d="M30,15A15,15,0,1,1,15,0,15,15,0,0,1,30,15" fill="#3e0639"/>
  <path id="패스_20" data-name="패스 20" d="M15.914,9.783,12.57,15.218,16.158,21c.071.1.047.169-.07.191H13.841a.279.279,0,0,1-.278-.139L11,16.612h-.018L8.476,21.054a.233.233,0,0,1-.226.139H6.105a.108.108,0,0,1-.079-.025A.1.1,0,0,1,6,21.1a.108.108,0,0,1,.035-.079l3.553-5.643L6.177,9.731a.083.083,0,0,1-.009-.1.1.1,0,0,1,.1-.043H8.493a.22.22,0,0,1,.226.122l2.439,4.39h.018l2.4-4.39a.24.24,0,0,1,.226-.122h2.02c.128,0,.158.063.09.191" fill="#df61f1"/>
  <path id="패스_21" data-name="패스 21" d="M20.391,21.367a4.665,4.665,0,0,1-3.249-1.107,4.149,4.149,0,0,1-1.229-3.248,4.242,4.242,0,0,1,1.315-3.2,4.88,4.88,0,0,1,3.528-1.263,3.687,3.687,0,0,1,.976.1v-3.9a.108.108,0,0,1,.092-.123.076.076,0,0,1,.03,0H23.84a.091.091,0,0,1,.1.071.1.1,0,0,1,0,.034v10.5q0,.3.051,1.184a.129.129,0,0,1-.094.156h-.01a7.914,7.914,0,0,1-3.5.784m1.341-1.808V14.281a2.291,2.291,0,0,0-1.01-.191,2.413,2.413,0,0,0-1.847.741,2.945,2.945,0,0,0-.7,2.1,2.889,2.889,0,0,0,.692,2.121,2.383,2.383,0,0,0,1.76.7,2.518,2.518,0,0,0,1.1-.191" fill="#df61f1"/>
</svg>
