<svg xmlns="http://www.w3.org/2000/svg" width="30" height="30" viewBox="0 0 30 30">
  <g id="skill-icon05" transform="translate(-1517 -2632)">
    <circle id="타원_16" data-name="타원 16" cx="15" cy="15" r="15" transform="translate(1517 2632)" fill="#ffd600"/>
    <path id="패스_41" data-name="패스 41" d="M4.76-9.912v6.86c-.014.882-.392,1.344-1.092,1.344a1.09,1.09,0,0,1-1.12-1.2H.224c0,2.1,1.47,3.052,3.3,3.052,2.086,0,3.528-1.26,3.528-3.192v-6.86Zm9.156,2.968h2.24c-.028-1.848-1.5-3.094-3.78-3.08-2.24-.014-3.864,1.218-3.864,3.052.014,1.5,1.05,2.338,2.772,2.744L12.32-4c1.078.266,1.6.56,1.6,1.12,0,.644-.588,1.078-1.568,1.064C11.27-1.806,10.556-2.3,10.5-3.248H8.26C8.3-.98,9.9.126,12.376.14c2.45-.014,3.906-1.134,3.92-3-.014-1.6-1.12-2.548-3.024-2.968l-.868-.2c-.882-.2-1.484-.5-1.484-1.12.014-.56.5-.966,1.456-.952C13.314-8.106,13.846-7.672,13.916-6.944Z" transform="translate(1526 2655)"/>
  </g>
</svg>
