<svg id="skill-icon10" xmlns="http://www.w3.org/2000/svg" width="30" height="30" viewBox="0 0 30 30">
  <path id="패스_34" data-name="패스 34" d="M30,15A15,15,0,1,1,15,0,15,15,0,0,1,30,15" fill="#1590d1"/>
  <path id="패스_35" data-name="패스 35" d="M17.8,10.777c1.056,2.113.647-2.479-2.113-3.169-2.112-.528-2.112,1.056-2.112,1.056s3.169,0,4.225,2.113" fill="#fff"/>
  <path id="패스_36" data-name="패스 36" d="M15.687,20.288a1.224,1.224,0,0,0-1.376.231,1.15,1.15,0,0,0,.016,1.641,1.3,1.3,0,0,0,2.076-.471,1.136,1.136,0,0,0-.716-1.4" fill="#fff"/>
  <path id="패스_37" data-name="패스 37" d="M20.441,13.418A7.716,7.716,0,0,0,17.8,11.833S14.631,9.192,10.934,9.72a1.377,1.377,0,0,0-.689.232,1.054,1.054,0,0,0-.114,1.5c.55.525,1.7.382,2.388.382,2.112,0,2.641.528,2.641.528s-2.113-.528-3.7,2.113,1.585,4.754,3.7,4.226,3.7-1.585,3.169-4.754L19.385,15c.835.835,2.641,0,1.056-1.584m-3.8,2.594a2.778,2.778,0,0,1-.716.8,1.892,1.892,0,0,1-.69.332c-1.161.274-2.546-.793-2.112-2.043a2.555,2.555,0,0,1,2.135-1.5c.709-.089,1.671-.008,1.777.877a2.574,2.574,0,0,1-.394,1.527" fill="#fff"/>
</svg>
