<svg id="skill-icon03" xmlns="http://www.w3.org/2000/svg" width="30" height="30" viewBox="0 0 30 30">
  <path id="패스_25" data-name="패스 25" d="M30,15A15,15,0,1,1,15,0,15,15,0,0,1,30,15" fill="#251300"/>
  <path id="패스_26" data-name="패스 26" d="M11.823,8.874,8.16,20.865h2.319l.8-3.079h3.71l.805,3.079h2.395L14.514,8.874Zm-.045,7.048.339-1.313c.34-1.246.68-2.607.974-3.921h.062c.34,1.3.649,2.675,1.005,3.921l.339,1.313Z" fill="#ff8713"/>
  <rect id="사각형_106" data-name="사각형 106" width="2.257" height="9.074" transform="translate(19.351 11.791)" fill="#ff8713"/>
  <path id="패스_27" data-name="패스 27" d="M20.5,10.332a1.285,1.285,0,0,0,1.345-1.3,1.354,1.354,0,0,0-2.7,0,1.289,1.289,0,0,0,1.36,1.3" fill="#ff8713"/>
</svg>
