<svg id="skill-icon01" xmlns="http://www.w3.org/2000/svg" width="30" height="30" viewBox="0 0 30 30">
  <path id="패스_22" data-name="패스 22" d="M30,15A15,15,0,1,1,15,0,15,15,0,0,1,30,15" fill="#001e26"/>
  <path id="패스_23" data-name="패스 23" d="M11.056,8.525H7.429V21.407H9.637V16.829h1.478a3.929,3.929,0,0,0,4.27-4.265c0-3.046-1.88-4.039-4.329-4.039m-.089,6.267H9.637v-4.23h1.254c1.524,0,2.329.505,2.329,2a1.975,1.975,0,0,1-2.253,2.228" fill="#00c9fd"/>
  <path id="패스_24" data-name="패스 24" d="M20.416,15.628c-.881-.383-1.7-.644-1.7-1.358,0-.557.359-.94,1.1-.94a2.972,2.972,0,0,1,1.806.836l.985-1.55a4.3,4.3,0,0,0-2.851-1.2,2.894,2.894,0,0,0-3.105,2.994c0,1.619,1.225,2.368,2.284,2.838.881.4,1.747.731,1.747,1.462,0,.609-.374,1.027-1.209,1.027a3.364,3.364,0,0,1-2.239-1.062l-1,1.6a4.848,4.848,0,0,0,3.179,1.375,3.014,3.014,0,0,0,3.329-3.081c0-1.811-1.224-2.455-2.329-2.942" fill="#00c9fd"/>
</svg>
