<svg id="skill-icon06" xmlns="http://www.w3.org/2000/svg" width="30" height="30" viewBox="0 0 30 30">
  <path id="패스_38" data-name="패스 38" d="M30,15A15,15,0,1,1,15,0,15,15,0,0,1,30,15" fill="#260808"/>
  <path id="패스_39" data-name="패스 39" d="M22.051,15.465a10,10,0,0,0-4.021-.017,14.145,14.145,0,0,1-1.589-1.954c-.269-.4-.524-.782-.759-1.149.124-.377.246-.766.37-1.174.6-2,.592-3.377-.027-4.107a1.49,1.49,0,0,0-1.32-.489,1.237,1.237,0,0,0-.942.691c-.529.983-.281,2.724.66,4.663-.187.545-.39,1.063-.622,1.583-.2.438-.373.84-.538,1.212-.38.861-.682,1.546-.968,2.14-2.072.9-4.328,2.28-4.49,3.447a.852.852,0,0,0,.337.8,1.784,1.784,0,0,0,1.148.449c1.13,0,2.125-1.195,2.683-1.866a15.626,15.626,0,0,0,1.567-2.313c.868-.322,3.677-1.026,4.149-1.143a6.014,6.014,0,0,0,3.718,1.769c1.235.067,1.774-.524,1.855-1.057a1.409,1.409,0,0,0-1.211-1.488m-.107,1.289a.563.563,0,0,1-.542.423,4.368,4.368,0,0,1-2.925-1.089c.732-.187,2.71-.3,3.322.232a.407.407,0,0,1,.145.434M14.3,7.707a.4.4,0,0,1,.757-.043,7.475,7.475,0,0,1-.273,3.224A5.9,5.9,0,0,1,14.3,7.707m2.738,7.92a29.647,29.647,0,0,0-2.9.62,27.69,27.69,0,0,0,1.17-2.81c.041.063.082.126.125.19a13.828,13.828,0,0,0,1.608,2M11.61,18.152c-1.193,2.017-2.306,2.579-2.792,2.587-.117,0-.158-.025-.169-.043a.624.624,0,0,1-.015-.538c.173-.48.834-1.21,2.976-2.006" fill="#ec2109"/>
</svg>
